# AST/ASF file generated using VICON BodyLanguage
# -----------------------------------------------
:version 1.10
:name VICON
:units
  mass 1.0
  length 0.45
  angle deg
:documentation
   .ast/.asf automatically generated from VICON data using
   VICON BodyBuilder and BodyLanguage model FoxedUp or BRILLIANT.MOD
:root
   order TX TY TZ RX RY RZ
   axis XYZ
   position 0 0 0  
   orientation 0 0 0 
:bonedata
  begin
     id 1 
     name lhipjoint
     direction 0.714689 -0.624256 0.315473 
     length 2.45343 
     axis 0 0 0  XYZ
  end
  begin
     id 2 
     name lfemur
     direction 0.34202 -0.939693 0  
     length 6.59069  
     axis 0 0 20  XYZ
    dof rx ry rz
    limits (-160.0 20.0)
           (-70.0 70.0)
           (-60.0 70.0)
  end
  begin
     id 3 
     name ltibia
     direction 0.34202 -0.939693 0   
     length 6.73476   
     axis 0 0 20   XYZ
    dof rx
    limits (-10.0 170.0)
  end
  begin
     id 4 
     name lfoot
     direction 0.0718085 -0.197292 0.977711   
     length 1.52607   
     axis -90 7.62852e-016 20   XYZ
    dof rx rz
    limits (-45.0 90.0)
           (-70.0 20.0)
  end
  begin
     id 5 
     name ltoes
     direction 1.53553e-011 -4.22024e-011 1   
     length 0.777832   
     axis -90 7.62852e-016 20   XYZ
    dof rx
    limits (-90.0 20.0)
  end
  begin
     id 6 
     name rhipjoint
     direction -0.727419 -0.612432 0.309497   
     length 2.50079  
     axis 0 0 0  XYZ 
  end
  begin
     id 7 
     name rfemur
     direction -0.34202 -0.939693 0   
     length 6.51665   
     axis 0 0 -20   XYZ
    dof rx ry rz
    limits (-160.0 20.0)
           (-70.0 70.0)
           (-70.0 60.0)
  end
  begin
     id 8 
     name rtibia
     direction -0.34202 -0.939693 0   
     length 6.48919   
     axis 0 0 -20   XYZ
    dof rx
    limits (-10.0 170.0)
 end
 begin
     id 9 
     name rfoot
     direction -0.112205 -0.308282 0.944655   
     length 1.68717  
     axis -90 -7.62852e-016 -20   XYZ
    dof rx rz
    limits (-45.0 90.0)
           (-20.0 70.0)
  end
  begin
     id 10 
     name rtoes
     direction -1.53583e-011 -4.21993e-011 1   
     length 0.846859   
     axis -90 -7.62852e-016 -20   XYZ
    dof rx
    limits (-90.0 20.0)
  end
  begin
     id 11 
     name lowerback
     direction -0.00119603 0.996364 -0.0851956   
     length 1.67242   
     axis 0 0 0   XYZ
    dof rx ry rz
    limits (-20.0 45.0)
           (-30.0 30.0)
           (-30.0 30.0)
  end
  begin
     id 12 
     name upperback
     direction -0.00531001 0.998318 0.0577248   
     length 1.64819   
     axis 0 0 0   XYZ
    dof rx ry rz
    limits (-20.0 45.0)
           (-30.0 30.0)
           (-30.0 30.0)
  end
  begin
     id 13 
     name thorax
     direction -0.00653676 0.995132 0.0983291   
     length 1.67429   
     axis 0 0 0   XYZ
    dof rx ry rz
    limits (-20.0 45.0)
           (-30.0 30.0)
           (-30.0 30.0)
  end
  begin
     id 14 
     name lowerneck
     direction 0.0141424 0.999886 0.00525412   
     length 1.59623   
     axis 0 0 0   XYZ
    dof rx ry rz
    limits (-20.0 45.0)
           (-30.0 30.0)
           (-30.0 30.0)
  end
  begin
     id 15 
     name upperneck
     direction -0.0640064 0.987178 -0.146232   
     length 1.59576   
     axis 0 0 0   XYZ
    dof rx ry rz
    limits (-20.0 45.0)
           (-30.0 30.0)
           (-30.0 30.0)
  end
  begin
     id 16
     name head
     direction -0.0222942 0.998496 -0.0500859  
     length 1.60959  
     axis 0 0 0   XYZ
    dof rx ry rz
    limits (-20.0 45.0)
           (-30.0 30.0)
           (-30.0 30.0)
  end
  begin
     id 17 
     name lclavicle
     direction 0.908549 0.392612 0.142806  
     length 2.80649  
     axis 0 0 0   XYZ
    dof ry rz
    limits (-20.0 10.0)
           (0.0 20.0)
  end
  begin
     id 18 
     name lhumerus
     direction 1 -4.48968e-011 1.08832e-028   
     length 4.2884   
     axis -180 -30 -90   XYZ
    dof rx ry rz
    limits (-60.0 90.0)
           (-90.0 90.0)
           (-90.0 90.0)
  end
  begin
     id 19
     name lradius
     direction 1 -4.48952e-011 -3.02642e-028   
     length 3.06552   
     axis -180 -30 -90   XYZ
    dof rx
    limits (-10.0 170.0)
  end
  begin
     id 20
     name lwrist
     direction 1 -4.49014e-011 1.58672e-027   
     length 1.53276   
     axis -1.65735e-015 90 90   XYZ
    dof ry
    limits (-180.0 0.0)
 end
  begin
     id 21 
     name lhand
     direction 1 -4.48928e-011 3.17344e-027   
     length 0.753045   
     axis -2.02492e-015 90 90   XYZ
    dof rx rz
    limits (-90.0 90.0)
           (-45.0 45.0)
  end
  begin
     id 22 
     name lfingers
     direction 1 -4.48958e-011 6.34687e-027   
     length 0.607124   
     axis -4.04985e-015 90 90   XYZ
    dof rx
    limits (0.0 90.0)
  end
  begin
     id 23
     name lthumb
     direction 0.707107 -6.34905e-011 0.707107   
     length 0.871712   
     axis -90 45 2.85299e-015   XYZ
    dof rx rz
    limits (-45.0 45.0)
           (-45.0 45.0)
  end
  begin
     id 24 
     name rclavicle
     direction -0.885098 0.45949 0.0739604   
     length 2.9478  
     axis 0 0 0   XYZ 
    dof ry rz
    limits (-10.0 20.0)
           (-20.0 0.0)
  end
  begin
     id 25 
     name rhumerus
     direction -1 -4.4898e-011 -2.61739e-027  
     length 4.52172   
     axis -180 30 90   XYZ
    dof rx ry rz
    limits (-90.0 60.0)
           (-90.0 90.0)
           (-90.0 90.0)
  end
  begin
     id 26 
     name rradius
     direction -1 -4.48945e-011 9.02552e-028   
     length 2.8914   
     axis -180 30 90   XYZ
    dof rx
    limits (-10.0 170.0)
  end
  begin
     id 27 
     name rwrist
     direction -1 -4.49018e-011 1.58672e-027   
     length 1.4457   
     axis -1.65735e-015 -90 -90   XYZ
    dof ry
    limits (-180.0 0.0)
  end
  begin
     id 28
     name rhand
     direction -1 -4.48825e-011 3.17344e-027   
     length 0.680541   
     axis -2.02492e-015 -90 -90   XYZ
    dof rx rz
    limits (-90.0 90.0)
           (-45.0 45.0)
  end
  begin
     id 29
     name rfingers
     direction -1 -4.49067e-011 6.34687e-027   
     length 0.54867   
     axis -4.04985e-015 -90 -90   XYZ
    dof rx
    limits (0.0 90.0)
  end
  begin
     id 30
     name rthumb
     direction -0.707107 -6.34833e-011 0.707107   
     length 0.787783   
     axis -90 -45 -2.85299e-015   XYZ
    dof rx rz
    limits (-45.0 45.0)
           (-45.0 45.0)
  end
:hierarchy
  begin
    root lhipjoint rhipjoint lowerback
    lhipjoint lfemur
    lfemur ltibia
    ltibia lfoot
    lfoot ltoes
    rhipjoint rfemur
    rfemur rtibia
    rtibia rfoot
    rfoot rtoes
    lowerback upperback
    upperback thorax
    thorax lowerneck lclavicle rclavicle
    lowerneck upperneck
    upperneck head
    lclavicle lhumerus
    lhumerus lradius
    lradius lwrist
    lwrist lhand lthumb
    lhand lfingers
    rclavicle rhumerus
    rhumerus rradius
    rradius rwrist
    rwrist rhand rthumb
    rhand rfingers
  end

#!OML:ASF E:\emotionWalksFemale\Project 1\Capture day 1\Session 1\Female1.ASF
:FULLY-SPECIFIED
:DEGREES
157
root 7.6975 14.0529 21.6951 -176.003 -8.43923 -530.734
lowerback 19.5005 3.3623 -4.93879
upperback 0.419156 3.3047 1.45553
thorax -10.8927 1.77881 3.49002
lowerneck -6.09868 -6.73591 -11.4592
upperneck -10.1333 -8.56437 13.202
head -0.887996 -4.51019 5.72359
rclavicle 4.81059e-014 -1.03368e-014
rhumerus -47.8161 27.7647 -92.5156
rradius 97.8139
rwrist 1.43004
rhand 1.55493 -64.3112
rfingers 7.12502
rthumb 27.0789 -627.611
lclavicle 4.81059e-014 -1.03368e-014
lhumerus 30.8491 -20.7253 48.4588
lradius 71.3301
lwrist 4.5339
lhand 22.6713 -40.2295
lfingers 7.12502
lthumb 47.015 -17.5699
rfemur -27.8793 -3.23844 31.567
rtibia 56.5089
rfoot -29.7583 -33.1967
rtoes 14.6545
lfemur -41.8052 -14.366 -16.1075
ltibia 61.3959
lfoot -32.3625 -10.6801
ltoes -47.0709
158
root 7.66205 14.0522 21.7091 -175.45 -8.98421 -530.611
lowerback 18.435 3.44521 -4.24825
upperback 0.591649 3.62534 1.49588
thorax -10.0905 1.88343 3.08902
lowerneck -5.91329 -7.11231 -11.7643
upperneck -10.6694 -9.06309 13.445
head -0.986456 -4.77798 5.84761
rclavicle -1.59028e-015 -3.89618e-014
rhumerus -46.3862 27.7552 -91.6204
rradius 98.3341
rwrist 1.97902
rhand 3.0989 -64.7558
rfingers 7.12502
rthumb 28.5551 -627.405
lclavicle -1.59028e-015 -3.89618e-014
lhumerus 29.1389 -19.1853 48.3205
lradius 68.9365
lwrist 3.80379
lhand 23.2527 -39.6463
lfingers 7.12502
lthumb 47.5523 -17.2273
rfemur -28.7514 -2.72064 31.6423
rtibia 56.8204
rfoot -28.7905 -33.9704
rtoes 14.3055
lfemur -42.6076 -13.7509 -16.0872
ltibia 61.3372
lfoot -32.407 -11.7284
ltoes -46.7145
159
root 7.61076 14.0545 21.7255 -174.531 -9.56223 -530.551
lowerback 18.2202 3.25261 -3.43326
upperback -0.0106239 3.58167 1.31232
thorax -10.5693 1.85443 2.42885
lowerneck -5.70389 -7.1044 -11.6273
upperneck -11.0265 -9.07286 13.5255
head -1.12397 -4.8059 5.87063
rclavicle -3.71727e-014 -2.14687e-014
rhumerus -46.7008 28.0571 -92.3284
rradius 99.2552
rwrist 1.77412
rhand 0.411701 -64.3709
rfingers 7.12502
rthumb 25.9847 -627.386
lclavicle -3.71727e-014 -2.14687e-014
lhumerus 26.7251 -17.6799 48.8416
lradius 65.9805
lwrist 1.2682
lhand 23.4935 -39.3833
lfingers 7.12502
lthumb 47.7745 -17.066
rfemur -29.8763 -2.4497 31.5454
rtibia 56.7996
rfoot -27.9142 -34.3552
rtoes 14.3622
lfemur -43.7724 -13.3477 -16.074
ltibia 61.0972
lfoot -32.028 -13.124
ltoes -45.4558
160
root 7.54188 14.0817 21.7385 -173.831 -10.9277 -530.625
lowerback 17.3021 2.87077 -2.36544
upperback -0.231508 3.34891 1.29431
thorax -10.2085 1.7022 1.89552
lowerneck -4.75976 -7.19832 -11.7995
upperneck -11.7722 -9.24762 13.482
head -1.46731 -4.91836 5.94254
rclavicle 2.60408e-014 -1.19271e-014
rhumerus -47.3277 28.5593 -92.9975
rradius 100.296
rwrist -0.29383
rhand -6.16967 -63.4152
rfingers 7.12502
rthumb 19.6692 -627.56
lclavicle 2.60408e-014 -1.19271e-014
lhumerus 24.6861 -16.8991 48.9559
lradius 63.5885
lwrist -1.49702
lhand 22.9746 -38.5186
lfingers 7.12502
lthumb 47.2954 -15.9836
rfemur -30.5037 -2.9452 31.2101
rtibia 56.4105
rfoot -27.8241 -34.4843
rtoes 15.064
lfemur -44.5898 -13.8595 -16.254
ltibia 60.4619
lfoot -31.3317 -14.5727
ltoes -44.1387
161
root 7.47363 14.1319 21.7426 -173.258 -12.0911 -530.841
lowerback 16.2718 2.77546 -1.28529
upperback -1.11033 3.52034 1.32714
thorax -10.5394 1.76132 1.29358
lowerneck -0.690805 -7.28725 -13.2311
upperneck -13.0928 -9.55268 14.028
head -2.37016 -5.09005 6.56007
rclavicle 4.6118e-014 2.38542e-014
rhumerus -49.4971 27.4993 -93.0069
rradius 102.058
rwrist 1.54997
rhand -2.65912 -65.2003
rfingers 7.12502
rthumb 23.0411 -626.157
lclavicle 4.6118e-014 2.38542e-014
lhumerus 20.9582 -17.39 50.3868
lradius 61.846
lwrist -4.39093
lhand 23.5584 -38.8646
lfingers 7.12502
lthumb 47.8344 -16.5749
rfemur -30.6612 -3.26081 30.6688
rtibia 55.6787
rfoot -27.9146 -34.522
rtoes 15.4935
lfemur -44.8806 -14.2905 -16.6393
ltibia 59.4648
lfoot -30.623 -15.8846
ltoes -43.1131
162
root 7.40709 14.1916 21.7415 -172.979 -13.0242 -531.092
lowerback 17.021 2.38533 -1.09104
upperback -1.00609 3.01339 1.23786
thorax -10.8168 1.50034 1.1926
lowerneck -4.22962 -7.49468 -12.152
upperneck -11.5656 -9.63702 13.4706
head -1.42715 -5.08278 5.99125
rclavicle 3.02153e-014 8.74653e-015
rhumerus -48.8223 28.7651 -93.8512
rradius 103.198
rwrist -0.0685659
rhand -6.71278 -63.942
rfingers 7.12502
rthumb 19.147 -626.981
lclavicle 3.02153e-014 8.74653e-015
lhumerus 18.4377 -15.6107 50.064
lradius 60.3471
lwrist -6.23687
lhand 24.2785 -38.9586
lfingers 7.12502
lthumb 48.498 -16.9815
rfemur -30.2806 -3.6328 30.09
rtibia 54.6084
rfoot -27.6964 -34.5751
rtoes 15.6943
lfemur -44.5529 -14.546 -17.1387
ltibia 58.1338
lfoot -29.7683 -17.4904
ltoes -41.5955
163
root 7.33405 14.2627 21.744 -172.955 -13.7878 -531.251
lowerback 16.9165 2.24109 -0.732753
upperback -1.08813 2.91541 1.40486
thorax -10.8356 1.44036 1.19992
lowerneck -4.14243 -7.54451 -12.3696
upperneck -11.5217 -9.69295 13.4731
head -1.41076 -5.09681 6.02593
rclavicle 6.55989e-014 -3.81667e-014
rhumerus -48.9791 28.9244 -93.7771
rradius 104.439
rwrist 1.28378
rhand -2.67923 -65.2482
rfingers 7.12502
rthumb 23.0218 -626.107
lclavicle 6.55989e-014 -3.81667e-014
lhumerus 15.5489 -15.2126 50.2853
lradius 58.8491
lwrist -6.96101
lhand 24.482 -38.6812
lfingers 7.12502
lthumb 48.6852 -16.7945
rfemur -29.5306 -3.99272 29.5842
rtibia 53.2358
rfoot -27.1259 -34.7448
rtoes 15.829
lfemur -43.8122 -14.6127 -17.6603
ltibia 56.5631
lfoot -28.779 -18.9792
ltoes -40.317
164
root 7.25698 14.3455 21.7458 -173.056 -14.5222 -531.376
lowerback 17.0526 2.03389 -0.250062
upperback -1.16716 2.75177 1.53051
thorax -10.9797 1.3382 1.10181
lowerneck -4.18097 -7.54719 -12.4311
upperneck -11.4788 -9.6919 13.3426
head -1.39832 -5.08436 5.99258
rclavicle -1.23246e-014 -2.38542e-015
rhumerus -49.2336 29.2628 -94.1563
rradius 105.456
rwrist 2.41155
rhand 0.473659 -65.9323
rfingers 7.12502
rthumb 26.044 -625.833
lclavicle -1.23246e-014 -2.38542e-015
lhumerus 12.7579 -15.1974 50.4579
lradius 57.2883
lwrist -6.99779
lhand 24.6519 -38.3253
lfingers 7.12502
lthumb 48.8414 -16.5148
rfemur -28.4878 -4.24434 29.1042
rtibia 51.5949
rfoot -26.7818 -34.8715
rtoes 17.0472
lfemur -42.7977 -14.6373 -18.2211
ltibia 54.8223
lfoot -28.1351 -19.6165
ltoes -41.1664
165
root 7.18205 14.4326 21.7428 -173.232 -15.1592 -531.412
lowerback 17.1365 1.87844 0.295275
upperback -1.20789 2.66248 1.58899
thorax -11.0482 1.26416 0.877692
lowerneck -4.42185 -7.61213 -12.2355
upperneck -11.24 -9.77121 13.1053
head -1.30529 -5.11064 5.86587
rclavicle 1.45113e-014 -2.22639e-014
rhumerus -49.8038 29.5409 -95.038
rradius 106.487
rwrist 3.52295
rhand 1.76046 -65.9209
rfingers 7.12502
rthumb 27.2755 -626.032
lclavicle 1.45113e-014 -2.22639e-014
lhumerus 10.0845 -15.5892 50.6259
lradius 55.8101
lwrist -6.47941
lhand 26.1254 -37.7505
lfingers 7.12502
lthumb 50.1924 -16.6294
rfemur -27.2348 -4.38468 28.7379
rtibia 49.6895
rfoot -26.429 -34.9547
rtoes 19.0709
lfemur -41.5684 -14.4962 -18.698
ltibia 52.9213
lfoot -28.029 -19.6194
ltoes -44.0223
166
root 7.10097 14.5328 21.737 -173.457 -15.4646 -531.444
lowerback 17.1434 1.83363 0.847101
upperback -1.26413 2.71444 1.54866
thorax -11.0874 1.25393 0.50631
lowerneck -4.51508 -7.70239 -11.9353
upperneck -10.8402 -9.8909 12.8672
head -1.18844 -5.15563 5.72092
rclavicle 4.92986e-014 1.63003e-014
rhumerus -50.7396 30.1794 -96.527
rradius 107.324
rwrist 3.90147
rhand 1.3655 -65.9551
rfingers 7.12502
rthumb 26.8976 -625.939
lclavicle 4.92986e-014 1.63003e-014
lhumerus 7.45766 -16.1701 50.9512
lradius 54.1596
lwrist -6.06413
lhand 27.8978 -37.3867
lfingers 7.12502
lthumb 51.8074 -17.1673
rfemur -25.824 -4.24638 28.3225
rtibia 47.5572
rfoot -25.9086 -34.9034
rtoes 21.1466
lfemur -40.1126 -14.1108 -19.1493
ltibia 50.826
lfoot -27.6537 -19.9934
ltoes -45.5496
167
root 7.01254 14.6556 21.7211 -173.711 -15.5264 -531.752
lowerback 17.0638 1.78878 1.0499
upperback -1.30911 2.69222 1.48083
thorax -11.0784 1.23044 0.324564
lowerneck -4.5943 -7.75092 -11.7967
upperneck -10.2413 -9.94823 12.5616
head -1.02003 -5.15479 5.57803
rclavicle -6.98728e-014 -7.95139e-015
rhumerus -51.6664 31.6207 -98.4128
rradius 107.557
rwrist 3.64814
rhand 0.332048 -66.1137
rfingers 7.12502
rthumb 25.9084 -625.632
lclavicle -6.98728e-014 -7.95139e-015
lhumerus 4.76918 -16.3798 51.7184
lradius 52.0542
lwrist -6.58849
lhand 28.608 -36.8532
lfingers 7.12502
lthumb 52.4512 -17.0195
rfemur -24.1556 -3.78671 27.5663
rtibia 45.2725
rfoot -25.4096 -34.8592
rtoes 22.8219
lfemur -38.3026 -13.5702 -19.8856
ltibia 48.4909
lfoot -26.609 -21.0674
ltoes -44.6084
168
root 6.92501 14.7816 21.6958 -173.949 -15.514 -532.124
lowerback 16.7803 1.73609 1.14193
upperback -1.35149 2.6399 1.4818
thorax -10.9578 1.20351 0.294511
lowerneck -4.80854 -7.85028 -12.2061
upperneck -9.30475 -10.0333 12.3503
head -0.695322 -5.14111 5.53147
rclavicle -1.64991e-014 1.43125e-014
rhumerus -52.859 32.5597 -100.293
rradius 107.858
rwrist 3.79947
rhand 0.635565 -66.0086
rfingers 7.12502
rthumb 26.199 -625.78
lclavicle -1.64991e-014 1.43125e-014
lhumerus 2.17523 -16.0958 53.0138
lradius 49.4741
lwrist -8.23456
lhand 29.1269 -35.424
lfingers 7.12502
lthumb 52.9203 -15.8812
rfemur -22.4673 -3.11698 26.8047
rtibia 42.9332
rfoot -24.6636 -35.369
rtoes 22.3587
lfemur -36.3085 -12.6506 -20.7459
ltibia 46.0005
lfoot -26.124 -21.2732
ltoes -45.3282
169
root 6.83928 14.8964 21.6704 -174.081 -15.3321 -532.441
lowerback 16.3667 1.71126 1.31207
upperback -1.49121 2.64372 1.4925
thorax -10.868 1.20004 0.218603
lowerneck -4.98572 -7.96199 -13.0517
upperneck -8.07103 -10.1069 12.2691
head -0.260787 -5.10862 5.58588
rclavicle -1.6201e-014 -2.46493e-014
rhumerus -54.1244 33.7797 -102.28
rradius 107.832
rwrist 3.642
rhand 1.7402 -65.7741
rfingers 7.12502
rthumb 27.2561 -626.175
lclavicle -1.6201e-014 -2.46493e-014
lhumerus -0.51092 -15.3679 54.6676
lradius 46.7043
lwrist -11.0318
lhand 27.3871 -34.1878
lfingers 7.12502
lthumb 51.3433 -13.7
rfemur -21.0222 -2.19215 26.1556
rtibia 40.6322
rfoot -24.3963 -36.2095
rtoes 21.3273
lfemur -34.4055 -11.3575 -21.5639
ltibia 43.4874
lfoot -26.2059 -20.6555
ltoes -46.8823
